<svg>
    <symbol id="icon_profile" viewBox="0 0 28 28" xmlns="http://www.w3.org/2000/svg">
        <g>
            <path fill-rule="evenodd" clip-rule="evenodd" d="M28 14C28 21.732 21.732 28 14 28C6.26801 28 0 21.732 0 14C0 6.26801 6.26801 0 14 0C21.732 0 28 6.26801 28 14ZM18.6667 7.77778C18.6667 10.3551 16.5774 12.4444 14.0001 12.4444C11.4227 12.4444 9.33339 10.3551 9.33339 7.77778C9.33339 5.20045 11.4227 3.11111 14.0001 3.11111C16.5774 3.11111 18.6667 5.20045 18.6667 7.77778ZM19.4998 16.2781C20.9584 17.7367 21.7778 19.715 21.7778 21.7778H14L6.22225 21.7778C6.22225 19.715 7.0417 17.7367 8.50031 16.2781C9.95893 14.8194 11.9372 14 14 14C16.0628 14 18.0411 14.8194 19.4998 16.2781Z" />
        </g>
    </symbol>

    <symbol id="icon_facebook" viewBox="0 0 24 24" xmlns="http://www.w3.org/2000/svg">
        <g>
            <path d="M15.12 5.32003H17V2.14003C16.0897 2.04538 15.1751 1.99865 14.26 2.00003C11.54 2.00003 9.67999 3.66003 9.67999 6.70003V9.32003H6.60999V12.88H9.67999V22H13.36V12.88H16.42L16.88 9.32003H13.36V7.05003C13.36 6.00003 13.64 5.32003 15.12 5.32003Z" />
        </g>
    </symbol>

    <symbol id="icon_instagram" viewBox="0 0 20 20" xmlns="http://www.w3.org/2000/svg">
        <g>
            <path d="M15.34 3.46C15.1027 3.46 14.8707 3.53038 14.6733 3.66224C14.476 3.79409 14.3222 3.98151 14.2313 4.20078C14.1405 4.42005 14.1168 4.66133 14.1631 4.89411C14.2094 5.12689 14.3236 5.34071 14.4915 5.50853C14.6593 5.67635 14.8731 5.79064 15.1059 5.83694C15.3387 5.88324 15.5799 5.85948 15.7992 5.76866C16.0185 5.67783 16.2059 5.52402 16.3378 5.32668C16.4696 5.12935 16.54 4.89734 16.54 4.66C16.54 4.34174 16.4136 4.03652 16.1885 3.81147C15.9635 3.58643 15.6583 3.46 15.34 3.46ZM19.94 5.88C19.9206 5.0503 19.7652 4.2294 19.48 3.45C19.2257 2.78313 18.83 2.17928 18.32 1.68C17.8248 1.16743 17.2196 0.774176 16.55 0.53C15.7727 0.236161 14.9508 0.07721 14.12 0.0599999C13.06 -5.58794e-08 12.72 0 10 0C7.28 0 6.94 -5.58794e-08 5.88 0.0599999C5.04915 0.07721 4.22734 0.236161 3.45 0.53C2.78168 0.776649 2.17693 1.16956 1.68 1.68C1.16743 2.17518 0.774176 2.78044 0.53 3.45C0.236161 4.22734 0.07721 5.04915 0.0599999 5.88C-5.58794e-08 6.94 0 7.28 0 10C0 12.72 -5.58794e-08 13.06 0.0599999 14.12C0.07721 14.9508 0.236161 15.7727 0.53 16.55C0.774176 17.2196 1.16743 17.8248 1.68 18.32C2.17693 18.8304 2.78168 19.2234 3.45 19.47C4.22734 19.7638 5.04915 19.9228 5.88 19.94C6.94 20 7.28 20 10 20C12.72 20 13.06 20 14.12 19.94C14.9508 19.9228 15.7727 19.7638 16.55 19.47C17.2196 19.2258 17.8248 18.8326 18.32 18.32C18.8322 17.8226 19.2283 17.2182 19.48 16.55C19.7652 15.7706 19.9206 14.9497 19.94 14.12C19.94 13.06 20 12.72 20 10C20 7.28 20 6.94 19.94 5.88ZM18.14 14C18.1327 14.6348 18.0178 15.2637 17.8 15.86C17.6403 16.2952 17.3839 16.6884 17.05 17.01C16.7256 17.3405 16.3332 17.5964 15.9 17.76C15.3037 17.9778 14.6748 18.0927 14.04 18.1C13.04 18.15 12.67 18.16 10.04 18.16C7.41 18.16 7.04 18.16 6.04 18.1C5.38089 18.1123 4.72459 18.0109 4.1 17.8C3.68578 17.6281 3.31136 17.3728 3 17.05C2.66809 16.7287 2.41484 16.3352 2.26 15.9C2.01586 15.2952 1.88044 14.6519 1.86 14C1.86 13 1.8 12.63 1.8 10C1.8 7.37 1.8 7 1.86 6C1.86448 5.35106 1.98295 4.70795 2.21 4.1C2.38605 3.67791 2.65627 3.30166 3 3C3.30381 2.65617 3.67929 2.3831 4.1 2.2C4.70955 1.98004 5.352 1.86508 6 1.86C7 1.86 7.37 1.8 10 1.8C12.63 1.8 13 1.8 14 1.86C14.6348 1.86728 15.2637 1.98225 15.86 2.2C16.3144 2.36865 16.7223 2.64285 17.05 3C17.3777 3.30718 17.6338 3.68273 17.8 4.1C18.0223 4.70893 18.1373 5.35178 18.14 6C18.19 7 18.2 7.37 18.2 10C18.2 12.63 18.19 13 18.14 14ZM10 4.87C8.98581 4.87198 7.99496 5.17453 7.15265 5.73942C6.31035 6.30431 5.65438 7.1062 5.26763 8.04375C4.88089 8.98131 4.78072 10.0125 4.97979 11.0069C5.17886 12.0014 5.66824 12.9145 6.38608 13.631C7.10392 14.3474 8.01801 14.835 9.01286 15.0321C10.0077 15.2293 11.0387 15.1271 11.9755 14.7385C12.9123 14.35 13.7129 13.6924 14.2761 12.849C14.8394 12.0056 15.14 11.0142 15.14 10C15.1413 9.3251 15.0092 8.65661 14.7512 8.03296C14.4933 7.40931 14.1146 6.84281 13.6369 6.36605C13.1592 5.88929 12.5919 5.51168 11.9678 5.25493C11.3436 4.99818 10.6749 4.86736 10 4.87ZM10 13.33C9.34139 13.33 8.69757 13.1347 8.14995 12.7688C7.60234 12.4029 7.17552 11.8828 6.92348 11.2743C6.67144 10.6659 6.6055 9.99631 6.73398 9.35035C6.86247 8.70439 7.17963 8.11104 7.64533 7.64533C8.11104 7.17963 8.70439 6.86247 9.35035 6.73398C9.99631 6.6055 10.6659 6.67144 11.2743 6.92348C11.8828 7.17552 12.4029 7.60234 12.7688 8.14995C13.1347 8.69757 13.33 9.34139 13.33 10C13.33 10.4373 13.2439 10.8703 13.0765 11.2743C12.9092 11.6784 12.6639 12.0454 12.3547 12.3547C12.0454 12.6639 11.6784 12.9092 11.2743 13.0765C10.8703 13.2439 10.4373 13.33 10 13.33Z" />
        </g>
    </symbol>

    <symbol id="icon_twitter" viewBox="0 0 24 24" xmlns="http://www.w3.org/2000/svg">
        <g>
            <path d="M22.9912 3.95021C22.9913 3.77357 22.9447 3.60007 22.8559 3.44735C22.7671 3.29464 22.6395 3.16817 22.486 3.08084C22.3324 2.9935 22.1585 2.94842 21.9819 2.95017C21.8053 2.95193 21.6323 3.00046 21.4805 3.09083C20.8952 3.43921 20.265 3.70601 19.6075 3.88383C18.6685 3.07806 17.4708 2.63713 16.2335 2.64164C14.8761 2.6432 13.5724 3.17223 12.5977 4.11702C11.623 5.06181 11.0537 6.3484 11.0099 7.70512C8.33384 7.27838 5.90849 5.88164 4.19631 3.78126C4.09315 3.65609 3.9614 3.55757 3.81217 3.494C3.66295 3.43043 3.50062 3.40368 3.33889 3.41601C3.17725 3.42932 3.02128 3.4818 2.88448 3.56892C2.74768 3.65603 2.63416 3.77516 2.55373 3.91601C2.14126 4.63582 1.90436 5.44276 1.86228 6.27131C1.8202 7.09986 1.97412 7.92666 2.31154 8.68456L2.30959 8.68651C2.15794 8.77991 2.03278 8.91066 1.94609 9.06625C1.85941 9.22185 1.81409 9.39708 1.81447 9.57519C1.81263 9.72211 1.82145 9.86898 1.84084 10.0146C1.94298 11.2729 2.50062 12.4507 3.4092 13.3271C3.34756 13.4446 3.30994 13.5731 3.29854 13.7052C3.28714 13.8373 3.30218 13.9704 3.34279 14.0967C3.7389 15.3308 4.58129 16.3727 5.7051 17.0185C4.56334 17.46 3.33052 17.614 2.11525 17.4668C1.89032 17.4386 1.66248 17.4876 1.4691 17.6059C1.27572 17.7242 1.12828 17.9047 1.05097 18.1178C0.973654 18.3309 0.97106 18.5639 1.04361 18.7787C1.11616 18.9935 1.25955 19.1772 1.45025 19.2998C3.54034 20.646 5.97393 21.3617 8.46002 21.3613C11.2793 21.393 14.03 20.4921 16.2843 18.7988C18.5385 17.1054 20.17 14.7145 20.9248 11.998C21.2779 10.8146 21.4582 9.58648 21.46 8.35157C21.46 8.28614 21.46 8.21876 21.459 8.15138C21.9811 7.58831 22.3856 6.92668 22.6487 6.20527C22.9118 5.48387 23.0283 4.7172 22.9912 3.95021ZM19.6846 7.16212C19.5194 7.35746 19.4358 7.60891 19.4512 7.86427C19.461 8.02927 19.46 8.19527 19.46 8.35157C19.4579 9.39511 19.305 10.4329 19.0059 11.4326C18.3894 13.744 17.015 15.7817 15.103 17.2192C13.1909 18.6568 10.8517 19.4111 8.46002 19.3613C7.6009 19.3616 6.74474 19.2606 5.90924 19.0606C6.97465 18.7172 7.97083 18.1879 8.85162 17.4971C9.01385 17.3693 9.13257 17.1945 9.19151 16.9967C9.25044 16.7988 9.2467 16.5875 9.18079 16.3918C9.11489 16.1961 8.99005 16.0257 8.8234 15.9038C8.65675 15.7819 8.45647 15.7145 8.25002 15.7109C7.41885 15.698 6.62515 15.363 6.03615 14.7764C6.18557 14.7481 6.33401 14.7129 6.48147 14.6709C6.69748 14.6094 6.88651 14.477 7.01813 14.295C7.14975 14.1131 7.21629 13.8921 7.20704 13.6677C7.1978 13.4433 7.1133 13.2285 6.96715 13.058C6.82101 12.8874 6.62173 12.7711 6.40139 12.7275C5.91893 12.6323 5.46494 12.427 5.0747 12.1277C4.68447 11.8284 4.36852 11.4432 4.15139 11.002C4.33212 11.0266 4.514 11.0419 4.69631 11.0479C4.91289 11.0511 5.1249 10.9854 5.30169 10.8603C5.47847 10.7351 5.61086 10.5569 5.67971 10.3516C5.74569 10.1443 5.74229 9.92123 5.67004 9.7161C5.59778 9.51096 5.46061 9.33499 5.27932 9.21485C4.83947 8.92182 4.47916 8.52427 4.23068 8.0578C3.98219 7.59134 3.85328 7.07052 3.85549 6.54201C3.85549 6.47561 3.85744 6.4092 3.86135 6.34377C6.10261 8.43402 9.00967 9.66621 12.0703 9.82326C12.2248 9.82934 12.3787 9.80024 12.5203 9.73816C12.6619 9.67607 12.7875 9.58262 12.8877 9.46486C12.9869 9.34596 13.0571 9.20566 13.0929 9.05501C13.1286 8.90437 13.1289 8.74748 13.0937 8.5967C13.0366 8.35806 13.0074 8.11357 13.0068 7.86818C13.0077 7.01271 13.348 6.19254 13.9529 5.58764C14.5578 4.98274 15.378 4.64251 16.2334 4.64161C16.6736 4.64043 17.1092 4.7305 17.5127 4.90615C17.9163 5.0818 18.2791 5.3392 18.5781 5.66212C18.6935 5.7862 18.8386 5.87871 18.9998 5.93085C19.161 5.98299 19.3329 5.99303 19.499 5.96001C19.9098 5.88006 20.3147 5.7724 20.7109 5.63775C20.4407 6.19072 20.0953 6.70369 19.6846 7.16212Z" />
        </g>
    </symbol>
</svg>